# xmcd CD database file
#
# Track frame offsets:
#	183
#	38650
#	56648
#	69913
#	86958
#	101420
#	112460
#	127075
#	146350
#	166583
#	185183
#	194650
#	211385
#	230730
#	247083
#	263795
#	279990
#	295538
#	311670
#	319373
#
# Disc length: 4438 seconds
#
# Revision: 5
# Processed by: cddbd v1.5.2PL0 Copyright (c) Steve Scherf et al.
# Submitted via: CDex 1.51
#
DISCID=3b115414
DTITLE=Don McLean - The Very Best Of
DYEAR=1989
DGENRE=Folk/Rock (70s)
TTITLE0=American Pie
TTITLE1=Vincent
TTITLE2=Castles In The Air
TTITLE3=Dreidel
TTITLE4=Winterwood
TTITLE5=Everyday
TTITLE6=Building My Body
TTITLE7=And I Love You So
TTITLE8=Mountains Of Mourne
TTITLE9=Fools Paradise
TTITLE10=Wonderful Baby
TTITLE11=La La Love You
TTITLE12=Primetime
TTITLE13=Jump
TTITLE14=Crying
TTITLE15=Bronco Bill's Lament
TTITLE16=Oh My What A Shame
TTITLE17=If We Try
TTITLE18=Babylon
TTITLE19=Love In My Heart
EXTD=YEAR: 1989
EXTT0=
EXTT1=
EXTT2=
EXTT3=
EXTT4=
EXTT5=
EXTT6=
EXTT7=
EXTT8=
EXTT9=
EXTT10=
EXTT11=
EXTT12=
EXTT13=
EXTT14=
EXTT15=
EXTT16=
EXTT17=
EXTT18=
EXTT19=
PLAYORDER=
